<mxfile host="65bd71144e" modified="2020-11-20T10:03:30.950Z" agent="5.0 (Macintosh; Intel Mac OS X 10_15_7) AppleWebKit/537.36 (KHTML, like Gecko) Code/1.51.1 Chrome/83.0.4103.122 Electron/9.3.3 Safari/537.36" version="13.6.5" etag="ZYV58Mc2z5c-95rv26_y">
    <diagram id="U3TSOpRmrltZot66hm7w" name="Page-1">
        <mxGraphModel dx="1887" dy="643" grid="1" gridSize="10" guides="1" tooltips="1" connect="1" arrows="1" fold="1" page="1" pageScale="1" pageWidth="827" pageHeight="1169" background="#FFFFFF" math="0" shadow="0">
            <root>
                <mxCell id="0"/>
                <mxCell id="1" parent="0"/>
                <mxCell id="20" value="" style="endArrow=block;dashed=1;endFill=0;endSize=12;html=1;fontSize=14;fontColor=#00232A;exitX=0.5;exitY=0;exitDx=0;exitDy=0;strokeColor=#00232A;entryX=0.5;entryY=1;entryDx=0;entryDy=0;strokeWidth=2;" edge="1" parent="1" source="19" target="10">
                    <mxGeometry width="160" relative="1" as="geometry">
                        <mxPoint x="252.5" y="310" as="sourcePoint"/>
                        <mxPoint x="602.5" y="300" as="targetPoint"/>
                        <Array as="points">
                            <mxPoint x="712.5" y="320"/>
                            <mxPoint x="612.5" y="320"/>
                        </Array>
                    </mxGeometry>
                </mxCell>
                <mxCell id="24" value="" style="endArrow=block;dashed=1;endFill=0;endSize=12;html=1;fontSize=14;fontColor=#00232A;exitX=0.5;exitY=0;exitDx=0;exitDy=0;strokeColor=#00232A;entryX=0.5;entryY=1;entryDx=0;entryDy=0;entryPerimeter=0;strokeWidth=2;" edge="1" parent="1" source="15" target="13">
                    <mxGeometry width="160" relative="1" as="geometry">
                        <mxPoint x="152.5" y="272.5" as="sourcePoint"/>
                        <mxPoint x="702.5" y="300" as="targetPoint"/>
                        <Array as="points">
                            <mxPoint x="512.5" y="320"/>
                            <mxPoint x="612.5" y="320"/>
                        </Array>
                    </mxGeometry>
                </mxCell>
                <mxCell id="25" value="&lt;div&gt;&lt;b&gt;&lt;font style=&quot;font-size: 20px&quot;&gt;1.&lt;/font&gt;&lt;/b&gt; The &lt;b&gt;Product&lt;/b&gt; declares the interface,&amp;nbsp;&lt;span&gt;which is&amp;nbsp;&lt;/span&gt;&lt;/div&gt;&lt;div&gt;&lt;span&gt;common to all objects&amp;nbsp;&lt;/span&gt;&lt;span&gt;that can be produced by the&lt;/span&gt;&lt;/div&gt;&lt;div&gt;&lt;span&gt;creator and its subclasses.&lt;/span&gt;&lt;/div&gt;" style="html=1;strokeWidth=2;fontSize=14;align=left;fillColor=#FDE4C9;labelBorderColor=none;fontColor=#391d00;spacing=16;spacingBottom=8;gradientColor=#ffffff;gradientDirection=east;strokeColor=none;" vertex="1" parent="1">
                    <mxGeometry x="430" y="80" width="340" height="80" as="geometry"/>
                </mxCell>
                <mxCell id="26" value="&lt;b&gt;&lt;font style=&quot;font-size: 20px&quot;&gt;2.&lt;/font&gt;&lt;/b&gt;&amp;nbsp;Concrete products are different&lt;br&gt;implementations of the product interface." style="html=1;strokeWidth=2;fontSize=14;align=left;fillColor=#FDE4C9;labelBorderColor=none;fontColor=#391d00;spacing=16;spacingBottom=8;gradientColor=#ffffff;gradientDirection=east;strokeColor=none;" vertex="1" parent="1">
                    <mxGeometry x="472.5" y="410" width="280" height="70" as="geometry"/>
                </mxCell>
                <mxCell id="32" value="&lt;b&gt;&lt;font style=&quot;font-size: 20px&quot;&gt;3.&lt;/font&gt;&lt;/b&gt; The &lt;b&gt;Creator&lt;/b&gt; class declares the&lt;br&gt;factory method that returns new product&lt;br&gt;objects. It's important that the return&lt;br&gt;type of this method matches the product&lt;br&gt;interface.&lt;br&gt;&lt;br&gt;You can declare the factory method&lt;br&gt;abstract to force all subclasses to&amp;nbsp;&lt;br&gt;implement their own versions of the&lt;br&gt;methods. As an alternative, the base&amp;nbsp;&lt;br&gt;factory method can return some default&lt;br&gt;product type.&lt;br&gt;&lt;b&gt;&lt;br&gt;Note:&lt;/b&gt; despite its name, product creation&lt;br&gt;is &lt;b&gt;not&lt;/b&gt; the primary responsibility of the&lt;br&gt;creator. Usually, the creator class&lt;br&gt;already as some core business logic&lt;br&gt;related to products.&lt;br&gt;The factory method helps to decouple&lt;br&gt;this logic from the concrete product&lt;br&gt;classes.&lt;br&gt;Here is an analogy: a large software&lt;br&gt;development company can have training &lt;br&gt;departments for programmers. However,&lt;br&gt;the primary function of the company as a&lt;br&gt;whole is still writing code, not producing&lt;br&gt;programmers." style="html=1;strokeWidth=2;fontSize=14;align=left;fillColor=#FDE4C9;labelBorderColor=none;fontColor=#391d00;spacing=16;spacingBottom=8;gradientColor=#ffffff;gradientDirection=east;strokeColor=none;" vertex="1" parent="1">
                    <mxGeometry x="-370" y="80" width="280" height="470" as="geometry"/>
                </mxCell>
                <mxCell id="35" value="" style="endArrow=open;dashed=1;endFill=0;endSize=12;html=1;fontSize=14;fontColor=#391d00;entryX=0;entryY=0.25;entryDx=0;entryDy=0;exitX=1;exitY=0.25;exitDx=0;exitDy=0;strokeColor=#00232A;strokeWidth=2;" edge="1" parent="1" source="28" target="10">
                    <mxGeometry width="160" relative="1" as="geometry">
                        <mxPoint x="112.5" y="400" as="sourcePoint"/>
                        <mxPoint x="272.5" y="400" as="targetPoint"/>
                    </mxGeometry>
                </mxCell>
                <mxCell id="36" value="&lt;font color=&quot;#00232a&quot;&gt;p = create_product()&lt;br&gt;&lt;div style=&quot;text-align: left&quot;&gt;&lt;span&gt;p.do_stuff()&lt;/span&gt;&lt;/div&gt;&lt;/font&gt;" style="html=1;strokeWidth=2;fontSize=14;fontColor=#391d00;strokeColor=none;fillColor=#CAF0F8;spacing=4;" vertex="1" parent="1">
                    <mxGeometry x="-40" y="100" width="160" height="60" as="geometry"/>
                </mxCell>
                <mxCell id="39" value="" style="endArrow=none;endFill=0;endSize=12;html=1;strokeColor=#00232A;fontSize=14;fontColor=#391d00;exitX=0.5;exitY=1;exitDx=0;exitDy=0;entryX=-0.019;entryY=0.182;entryDx=0;entryDy=0;entryPerimeter=0;dashed=1;" edge="1" parent="1" source="36" target="28">
                    <mxGeometry width="160" relative="1" as="geometry">
                        <mxPoint x="100" y="370" as="sourcePoint"/>
                        <mxPoint x="260" y="370" as="targetPoint"/>
                        <Array as="points">
                            <mxPoint x="40" y="199"/>
                        </Array>
                    </mxGeometry>
                </mxCell>
                <mxCell id="51" value="" style="endArrow=open;endFill=1;endSize=12;html=1;strokeColor=#00232A;fontSize=14;fontColor=#391d00;exitX=0.5;exitY=0;exitDx=0;exitDy=0;entryX=0.5;entryY=1;entryDx=0;entryDy=0;entryPerimeter=0;strokeWidth=2;" edge="1" parent="1" source="41" target="31">
                    <mxGeometry width="160" relative="1" as="geometry">
                        <mxPoint x="272.5" y="330" as="sourcePoint"/>
                        <mxPoint x="172.5" y="290" as="targetPoint"/>
                        <Array as="points">
                            <mxPoint x="52.5" y="320"/>
                            <mxPoint x="172.5" y="320"/>
                        </Array>
                    </mxGeometry>
                </mxCell>
                <mxCell id="52" value="" style="endArrow=open;endFill=1;endSize=12;html=1;strokeColor=#00232A;fontSize=14;fontColor=#391d00;entryX=0.5;entryY=1;entryDx=0;entryDy=0;exitX=0.5;exitY=0;exitDx=0;exitDy=0;strokeWidth=2;" edge="1" parent="1" source="46" target="28">
                    <mxGeometry width="160" relative="1" as="geometry">
                        <mxPoint x="352.5" y="315" as="sourcePoint"/>
                        <mxPoint x="252.5" y="275" as="targetPoint"/>
                        <Array as="points">
                            <mxPoint x="292.5" y="320"/>
                            <mxPoint x="172.5" y="320"/>
                        </Array>
                    </mxGeometry>
                </mxCell>
                <mxCell id="53" value="&lt;font color=&quot;#00232a&quot;&gt;return new ConcreteProductA()&lt;/font&gt;" style="html=1;strokeWidth=2;fontSize=14;fontColor=#391d00;strokeColor=none;fillColor=#CAF0F8;spacing=4;" vertex="1" parent="1">
                    <mxGeometry x="-60" y="450" width="225" height="40" as="geometry"/>
                </mxCell>
                <mxCell id="54" value="" style="endArrow=none;html=1;edgeStyle=orthogonalEdgeStyle;strokeColor=#00232A;strokeWidth=1;fontSize=14;fontColor=#391d00;exitX=0.5;exitY=1;exitDx=0;exitDy=0;entryX=0.5;entryY=0;entryDx=0;entryDy=0;dashed=1;" edge="1" parent="1" source="41" target="53">
                    <mxGeometry relative="1" as="geometry">
                        <mxPoint x="-27.5" y="260" as="sourcePoint"/>
                        <mxPoint x="132.5" y="260" as="targetPoint"/>
                    </mxGeometry>
                </mxCell>
                <mxCell id="58" value="&lt;b&gt;&lt;font style=&quot;font-size: 20px&quot;&gt;4.&lt;/font&gt;&lt;/b&gt;&amp;nbsp;&lt;b&gt;Concrete Creators&lt;/b&gt; override the base factory method so it&lt;br&gt;returns a different type of products.&lt;br&gt;&lt;br&gt;&lt;b&gt;Note:&lt;/b&gt; the factory method doesn't have to create new &lt;br&gt;instances all the time. It can also returns existing objects&lt;br&gt;from a cache, an object pool or another source." style="html=1;strokeWidth=2;fontSize=14;align=left;fillColor=#FDE4C9;labelBorderColor=none;fontColor=#391d00;spacing=16;spacingBottom=8;gradientColor=#ffffff;gradientDirection=east;strokeColor=none;" vertex="1" parent="1">
                    <mxGeometry x="-57.5" y="510" width="410" height="130" as="geometry"/>
                </mxCell>
                <mxCell id="10" value="&quot;Interface&quot;&#10;Product" style="swimlane;fontStyle=1;align=center;verticalAlign=top;childLayout=stackLayout;horizontal=1;startSize=50;horizontalStack=0;resizeParent=1;resizeParentMax=0;resizeLast=0;collapsible=1;marginBottom=0;fontColor=#00232A;fillColor=#6DC0D2;strokeWidth=2;fontSize=14;strokeColor=none;" vertex="1" parent="1">
                    <mxGeometry x="532.5" y="180" width="160" height="106" as="geometry"/>
                </mxCell>
                <mxCell id="11" value="..." style="text;strokeColor=none;align=left;verticalAlign=top;spacingLeft=4;spacingRight=4;overflow=hidden;rotatable=0;points=[[0,0.5],[1,0.5]];portConstraint=eastwest;fontColor=#00232A;fillColor=#CAF0F8;" vertex="1" parent="10">
                    <mxGeometry y="50" width="160" height="26" as="geometry"/>
                </mxCell>
                <mxCell id="12" value="" style="line;strokeWidth=1;fillColor=none;align=left;verticalAlign=middle;spacingTop=-1;spacingLeft=3;spacingRight=3;rotatable=0;labelPosition=right;points=[];portConstraint=eastwest;" vertex="1" parent="10">
                    <mxGeometry y="76" width="160" height="4" as="geometry"/>
                </mxCell>
                <mxCell id="13" value="+ do_stuff()" style="text;strokeColor=none;align=left;verticalAlign=top;spacingLeft=4;spacingRight=4;overflow=hidden;rotatable=0;points=[[0,0.5],[1,0.5]];portConstraint=eastwest;fontColor=#00232A;fillColor=#CAF0F8;" vertex="1" parent="10">
                    <mxGeometry y="80" width="160" height="26" as="geometry"/>
                </mxCell>
                <mxCell id="46" value="ConcreteCreatorB" style="swimlane;fontStyle=1;align=center;verticalAlign=top;childLayout=stackLayout;horizontal=1;startSize=30;horizontalStack=0;resizeParent=1;resizeParentMax=0;resizeLast=0;collapsible=1;marginBottom=0;fontColor=#00232A;fillColor=#6DC0D2;strokeWidth=2;fontSize=14;strokeColor=none;" vertex="1" parent="1">
                    <mxGeometry x="202.5" y="340" width="180" height="90" as="geometry"/>
                </mxCell>
                <mxCell id="47" value="..." style="text;strokeColor=none;align=left;verticalAlign=top;spacingLeft=4;spacingRight=4;overflow=hidden;rotatable=0;points=[[0,0.5],[1,0.5]];portConstraint=eastwest;fontColor=#00232A;fillColor=#CAF0F8;" vertex="1" parent="46">
                    <mxGeometry y="30" width="180" height="26" as="geometry"/>
                </mxCell>
                <mxCell id="48" value="" style="line;strokeWidth=1;fillColor=none;align=left;verticalAlign=middle;spacingTop=0;spacingLeft=3;spacingRight=3;rotatable=0;labelPosition=right;points=[];portConstraint=eastwest;" vertex="1" parent="46">
                    <mxGeometry y="56" width="180" height="4" as="geometry"/>
                </mxCell>
                <mxCell id="49" value="+ create_product(): Product" style="text;strokeColor=none;align=left;verticalAlign=top;spacingLeft=4;spacingRight=4;overflow=hidden;rotatable=0;points=[[0,0.5],[1,0.5]];portConstraint=eastwest;fontColor=#00232A;fillColor=#CAF0F8;" vertex="1" parent="46">
                    <mxGeometry y="60" width="180" height="30" as="geometry"/>
                </mxCell>
                <mxCell id="19" value="Concrete&#10;ProductB" style="swimlane;fontStyle=1;align=center;verticalAlign=top;childLayout=stackLayout;horizontal=1;startSize=50;horizontalStack=0;resizeParent=1;resizeParentMax=0;resizeLast=0;collapsible=1;marginBottom=0;fontColor=#00232A;fillColor=#6DC0D2;strokeWidth=2;fontSize=14;strokeColor=none;" vertex="1" parent="1">
                    <mxGeometry x="632.5" y="340" width="160" height="58" as="geometry"/>
                </mxCell>
                <mxCell id="15" value="Concrete&#10;ProductA" style="swimlane;fontStyle=1;align=center;verticalAlign=top;childLayout=stackLayout;horizontal=1;startSize=50;horizontalStack=0;resizeParent=1;resizeParentMax=0;resizeLast=0;collapsible=1;marginBottom=0;fontColor=#00232A;fillColor=#6DC0D2;strokeWidth=2;fontSize=14;strokeColor=none;" vertex="1" parent="1">
                    <mxGeometry x="432.5" y="340" width="160" height="58" as="geometry"/>
                </mxCell>
                <mxCell id="28" value="Creator" style="swimlane;fontStyle=1;align=center;verticalAlign=top;childLayout=stackLayout;horizontal=1;startSize=30;horizontalStack=0;resizeParent=1;resizeParentMax=0;resizeLast=0;collapsible=1;marginBottom=0;fontColor=#00232A;fillColor=#6DC0D2;strokeWidth=2;fontSize=14;strokeColor=none;" vertex="1" parent="1">
                    <mxGeometry x="82.5" y="180" width="180" height="106" as="geometry"/>
                </mxCell>
                <mxCell id="29" value="..." style="text;strokeColor=none;align=left;verticalAlign=top;spacingLeft=4;spacingRight=4;overflow=hidden;rotatable=0;points=[[0,0.5],[1,0.5]];portConstraint=eastwest;fontColor=#00232A;fillColor=#CAF0F8;" vertex="1" parent="28">
                    <mxGeometry y="30" width="180" height="26" as="geometry"/>
                </mxCell>
                <mxCell id="30" value="" style="line;strokeWidth=1;fillColor=none;align=left;verticalAlign=middle;spacingTop=0;spacingLeft=3;spacingRight=3;rotatable=0;labelPosition=right;points=[];portConstraint=eastwest;" vertex="1" parent="28">
                    <mxGeometry y="56" width="180" height="4" as="geometry"/>
                </mxCell>
                <mxCell id="31" value="+ some_operation()&#10;+ create_product(): Product" style="text;strokeColor=none;align=left;verticalAlign=top;spacingLeft=4;spacingRight=4;overflow=hidden;rotatable=0;points=[[0,0.5],[1,0.5]];portConstraint=eastwest;fontColor=#00232A;fillColor=#CAF0F8;" vertex="1" parent="28">
                    <mxGeometry y="60" width="180" height="46" as="geometry"/>
                </mxCell>
                <mxCell id="41" value="ConcreteCreatorA" style="swimlane;fontStyle=1;align=center;verticalAlign=top;childLayout=stackLayout;horizontal=1;startSize=30;horizontalStack=0;resizeParent=1;resizeParentMax=0;resizeLast=0;collapsible=1;marginBottom=0;fontColor=#00232A;fillColor=#6DC0D2;strokeWidth=2;fontSize=14;strokeColor=none;" vertex="1" parent="1">
                    <mxGeometry x="-37.5" y="340" width="180" height="90" as="geometry"/>
                </mxCell>
                <mxCell id="42" value="..." style="text;strokeColor=none;align=left;verticalAlign=top;spacingLeft=4;spacingRight=4;overflow=hidden;rotatable=0;points=[[0,0.5],[1,0.5]];portConstraint=eastwest;fontColor=#00232A;fillColor=#CAF0F8;" vertex="1" parent="41">
                    <mxGeometry y="30" width="180" height="26" as="geometry"/>
                </mxCell>
                <mxCell id="43" value="" style="line;strokeWidth=1;fillColor=none;align=left;verticalAlign=middle;spacingTop=0;spacingLeft=3;spacingRight=3;rotatable=0;labelPosition=right;points=[];portConstraint=eastwest;" vertex="1" parent="41">
                    <mxGeometry y="56" width="180" height="4" as="geometry"/>
                </mxCell>
                <mxCell id="44" value="+ create_product(): Product" style="text;strokeColor=none;align=left;verticalAlign=top;spacingLeft=4;spacingRight=4;overflow=hidden;rotatable=0;points=[[0,0.5],[1,0.5]];portConstraint=eastwest;fontColor=#00232A;fillColor=#CAF0F8;" vertex="1" parent="41">
                    <mxGeometry y="60" width="180" height="30" as="geometry"/>
                </mxCell>
            </root>
        </mxGraphModel>
    </diagram>
</mxfile>